<?xml version="1.0" encoding="UTF-8" standalone="no"?>
<svg
   aria-hidden="true"
   role="img"
   class="iconify iconify--logos"
   width="31.88"
   height="32"
   preserveAspectRatio="xMidYMid meet"
   viewBox="0 0 256 257"
   version="1.1"
   id="svg6"
   sodipodi:docname="vite.svg"
   xml:space="preserve"
   inkscape:version="1.4 (86a8ad7, 2024-10-11)"
   xmlns:inkscape="http://www.inkscape.org/namespaces/inkscape"
   xmlns:sodipodi="http://sodipodi.sourceforge.net/DTD/sodipodi-0.dtd"
   xmlns="http://www.w3.org/2000/svg"
   xmlns:svg="http://www.w3.org/2000/svg"><sodipodi:namedview
     id="namedview6"
     pagecolor="#ffffff"
     bordercolor="#000000"
     borderopacity="0.25"
     inkscape:showpageshadow="2"
     inkscape:pageopacity="0.0"
     inkscape:pagecheckerboard="0"
     inkscape:deskcolor="#d1d1d1"
     inkscape:zoom="16.528621"
     inkscape:cx="15.518536"
     inkscape:cy="18.513341"
     inkscape:window-width="1728"
     inkscape:window-height="992"
     inkscape:window-x="-8"
     inkscape:window-y="-8"
     inkscape:window-maximized="1"
     inkscape:current-layer="svg6" /><defs
     id="defs5"><linearGradient
       id="IconifyId1813088fe1fbc01fb466"
       x1="-.828%"
       x2="57.636%"
       y1="7.652%"
       y2="78.411%"><stop
         offset="0%"
         stop-color="#41D1FF"
         id="stop1" /><stop
         offset="100%"
         stop-color="#BD34FE"
         id="stop2" /></linearGradient><linearGradient
       id="IconifyId1813088fe1fbc01fb467"
       x1="43.376%"
       x2="50.316%"
       y1="2.242%"
       y2="89.03%"><stop
         offset="0%"
         stop-color="#FFEA83"
         id="stop3" /><stop
         offset="8.333%"
         stop-color="#FFDD35"
         id="stop4" /><stop
         offset="100%"
         stop-color="#FFA800"
         id="stop5" /></linearGradient><clipPath
       clipPathUnits="userSpaceOnUse"
       id="clipPath6"><rect
         style="fill:#e27110;stroke-width:8.03125"
         id="rect7"
         width="3562.2676"
         height="3683.2085"
         x="-4276.9375"
         y="-1869.0909" /></clipPath></defs><path
     fill="url(#IconifyId1813088fe1fbc01fb466)"
     d="M 255.153,37.938 134.897,252.976 c -2.483,4.44 -8.862,4.466 -11.382,0.048 L 0.875,37.958 c -2.746,-4.814 1.371,-10.646 6.827,-9.67 l 120.385,21.517 a 6.537,6.537 0 0 0 2.322,-0.004 L 248.276,28.318 c 5.438,-0.991 9.574,4.796 6.877,9.62 z"
     id="path5"
     style="display:none" /><path
     fill="url(#IconifyId1813088fe1fbc01fb467)"
     d="M 185.432,0.063 96.44,17.501 a 3.268,3.268 0 0 0 -2.634,3.014 l -5.474,92.456 a 3.268,3.268 0 0 0 3.997,3.378 l 24.777,-5.718 c 2.318,-0.535 4.413,1.507 3.936,3.838 l -7.361,36.047 c -0.495,2.426 1.782,4.5 4.151,3.78 l 15.304,-4.649 c 2.372,-0.72 4.652,1.36 4.15,3.788 l -11.698,56.621 c -0.732,3.542 3.979,5.473 5.943,2.437 l 1.313,-2.028 72.516,-144.72 c 1.215,-2.423 -0.88,-5.186 -3.54,-4.672 l -25.505,4.922 c -2.396,0.462 -4.435,-1.77 -3.759,-4.114 L 189.202,4.176 c 0.677,-2.35 -1.37,-4.583 -3.769,-4.113 z"
     id="path6"
     style="display:none" /><path
     style="display:inline;fill:#ffe14c;stroke-width:30.3543;fill-opacity:1;stroke:#000000;stroke-opacity:1"
     d="m -2216.71,1491.2192 c -194.6592,-42.9879 -349.8411,-130.8008 -483.7537,-273.7412 -108.9224,-116.2656 -182.0478,-249.14977 -223.9275,-406.92307 -23.4479,-88.3357 -29.6349,-277.0695 -12.337,-376.3382 51.1636,-293.6156 236.6148,-543.5693 500.4573,-674.5233 l 74.9984,-37.2241 v -68.1112 c 0,-117.3714 25.4449,-139.59472 159.8309,-139.59472 h 81.1066 v -62.5627 c 0,-191.11815 110.3196,-353.23641 285.1093,-418.97731 82.3588,-30.97632 275.3277,-33.06309 305.0916,-3.2993 16.3897,16.38973 15.3572,53.81137 -1.9118,69.29533 -26.1026,23.40428 -110.839,46.10234 -172.4185,46.1849 -45.3944,0.0607 -68.1224,4.56711 -101.573,20.13919 -117.0255,54.47722 -174.6324,147.19452 -179.5525,288.98537 l -2.2295,64.2501 102.2348,4.01557 c 98.5578,3.87109 103.0351,4.81602 124.4844,26.26803 20.836,20.83886 22.4242,27.32012 24.9981,102.02004 l 2.7486,79.7678 29.3764,9.5234 c 52.9479,17.165 156.8353,72.6446 211.4446,112.919 73.7016,54.355196 181.8854,170.091096 227.6961,243.591396 48.1263,77.215604 93.0345,181.265404 116.1839,269.191604 22.6003,85.8408 30.8615,272.2149 16.4385,370.8546 -27.5537,188.4409 -119.9121,365.95367 -263.2957,506.05437 -119.5641,116.8265 -256.2914,194.3296 -418.2762,237.0977 -107.1834,28.299 -300.9569,33.655 -402.9241,11.1367 z m 421.1658,-547.14807 c 79.7371,-30.2639 150.5231,-114.5217 127.3395,-151.5743 -15.9543,-25.4989 -45.5002,-19.788 -72.6934,14.0504 -83.7797,104.2522 -295.6032,102.5925 -376.1024,-2.9474 -31.0017,-40.6454 -75.6158,-35.2217 -75.6158,9.1922 0,25.725 46.8818,83.4091 88.6211,109.0412 81.0836,49.7936 211.1448,59.1703 308.451,22.2379 z m -401.4563,-317.343 c 41.0833,-19.4954 48.5561,-42.2511 48.5561,-147.8611 0,-76.9831 -2.5853,-97.3837 -14.6794,-115.8333 -16.7075,-25.4873 -61.6693,-47.2632 -83.2545,-40.3218 -62.7596,20.1823 -74.738,45.733 -74.738,159.4218 0,95.1026 9.3936,124.4179 46.2807,144.4326 28.3799,15.3988 45.6499,15.4346 77.8351,0.1518 z m 606.9908,0.2125 c 38.9652,-20.1498 47.9283,-48.2306 47.8946,-150.0512 -0.025,-75.3012 -2.6536,-95.053 -15.4409,-116.0239 -21.2028,-34.7721 -61.8312,-47.8212 -99.6688,-32.0117 -48.731,20.3614 -57.5322,43.4164 -57.5322,150.7101 0,83.0094 1.9895,96.8106 16.8368,116.8065 30.8106,41.4941 66.9743,51.739 107.9105,30.5702 z M 799.024,1314.7394 c -59.0219,-15.519 -106.3719,-55.1945 -128.1818,-107.4052 l -12.5807,-30.1172 h 47.3716 c 41.5615,0 48.9719,2.4435 60.4179,19.9112 20.5168,31.3123 57.8453,46.6934 102.8307,42.371 44.128,-4.2402 74.0719,-26.4356 91.8025,-68.0474 10.1829,-23.8983 15.6385,-90.6098 7.4098,-90.6098 -1.9822,0 -13.355,9.0392 -25.2758,20.0869 -32.2839,29.9197 -77.8607,39.817 -134.9739,29.3105 -61.8824,-11.3841 -103.3874,-39.7697 -132.3822,-90.5376 -78.5269,-137.49567 -1.2627,-310.61547 145.3824,-325.75077 52.6511,-5.434 97.8687,7.2307 128.7655,36.0655 l 22.0858,20.6121 v -25.5963 c 0,-25.399 0.3127,-25.5963 40.6026,-25.5963 h 40.6022 l -2.4526,234.914 c -2.3252,222.64687 -3.3569,236.59167 -19.7428,267.03887 -21.7473,40.4098 -46.9017,64.027 -85.2683,80.0574 -36.088,15.0785 -113.0474,22.0658 -146.4117,13.2931 z m 108.1488,-272.0583 c 40.3597,-20.3599 59.5036,-58.44697 59.5036,-118.38427 0,-59.4071 -21.2638,-100.0725 -62.5788,-119.6777 -62.3915,-29.6067 -130.3029,-6.539 -157.5672,53.5216 -54.2653,119.5412 50.6277,240.03837 160.6424,184.54037 z m 1197.9698,263.6805 c -49.0766,-16.9465 -90.9877,-54.9359 -109.2504,-99.0274 l -12.4744,-30.1172 h 48.0126 c 40.2101,0 49.4473,2.6802 56.8391,16.4924 13.4473,25.1264 56.4363,47.6942 90.9158,47.7276 72.7502,0.061 117.1252,-49.8045 117.4904,-132.0532 l 0.1821,-39.7238 -27.1401,26.3051 c -48.586,47.0917 -124.7199,51.2014 -199.8811,10.79 -99.2302,-53.3519 -129.722,-200.01157 -63.786,-306.79447 56.0486,-90.7704 189.3831,-116.2522 266.9175,-51.0114 l 23.8897,20.1019 v -24.8074 c 0,-24.4152 0.6344,-24.8077 40.1564,-24.8077 h 40.156 v 221.9354 c 0,251.19997 -3.0919,270.29797 -51.9833,321.07687 -53.8428,55.9212 -137.129,72.5426 -220.0385,43.9133 z m 126.7785,-263.6805 c 37.4964,-19.1967 56.8998,-58.99697 56.8998,-116.71417 0,-80.6487 -37.2724,-126.9179 -106.3525,-132.0231 -53.8352,-3.9789 -89.1139,16.4647 -110.7817,64.1969 -54.1676,119.3253 51.011,240.45847 160.2344,184.54037 z m -2368.5375,93.4103 c -55.5015,-22.0667 -88.0073,-85.2942 -72.7899,-141.58537 20.4686,-75.7158 62.1449,-98.3826 180.891804,-98.3826 h 84.648 v -24.4926 c 0,-40.7971 -20.4282,-70.2763 -55.18480029,-79.6352 -50.80059971,-13.6792 -92.45609971,0.3491 -112.44210371,37.8701 -8.0435,15.1 -16.3228,18.0702 -50.37,18.0702 -40.4305,0 -40.7018,-0.1821 -35.232,-22.0861 22.1054,-88.5685 127.117504,-136.0302 231.668504,-104.7061 43.2743,12.9653 89.834396,58.4846 100.939496,98.6829 4.9296,17.8438 8.895,95.4971 8.9199,174.6794 l 0.03,142.55487 H 100.2906 56.118804 v -25.4937 -25.4937 l -18.0702,16.5231 c -43.5112003,39.7851 -121.3276,54.7064 -174.679704,33.4948 z m 113.212404,-63.2806 c 26.1593997,0 71.482,-48.5481 76.8511,-82.32027 l 4.7881,-30.117 H -6.5427963 c -76.3288997,0 -102.7942037,8.315 -115.5464037,36.3029 -14.2344,31.24097 -0.097,62.02877 33.832604,73.68417 15.3654,5.278 32.7502,7.9887 38.633,6.0235 5.8828,-1.9669 17.6815,-3.5733 26.2196,-3.5733 z m 1252.099896,63.7268 c -35.9061,-15.0078 -72.2139,-57.5636 -84.5483,-99.0981 -8.4264,-28.3755 -11.8267,-79.81337 -11.8267,-178.91447 v -139.089 h 44.1719 44.172 v 140.9455 c 0,159.91087 4.6363,177.27227 53.538,200.47787 26.9786,12.8019 33.5394,13.1273 62.3341,3.0907 20.1037,-7.0073 39.0627,-21.4596 50.5142,-38.5066 17.336,-25.80637 18.3322,-34.86257 18.3322,-166.64827 v -139.3592 h 42.164 42.1643 v 208.8123 208.81257 h -42.1643 c -42.0696,0 -42.164,-0.061 -42.164,-25.6691 v -25.6695 l -28.1664,27.3001 c -25.0748,24.3035 -33.6702,27.5529 -78.3048,29.6037 -27.5759,1.2657 -59.1733,-1.4722 -70.2162,-6.0885 z m 391.1823,-8.23 c -81.7506,-43.1438 -83.353,-151.83657 -3.1158,-211.36777 19.2288,-14.2665 36.4913,-17.2079 114.4452,-19.4996 l 91.8006,-2.6985 v -29.6468 c 0,-39.158 -17.9406,-63.0699 -54.758,-72.9839 -42.8579,-11.5405 -87.476,2.2219 -104.5603,32.252 -11.8853,20.8911 -17.6584,23.4776 -52.5058,23.5228 l -39.1522,0.061 5.1363,-25.6819 c 12.0154,-60.0766 65.8082,-101.8533 139.7871,-108.5613 83.9823,-7.6153 161.832,32.8513 185.873,96.6175 4.9146,13.0363 8.5238,86.9961 8.5238,174.6798 v 152.07087 h -40.1564 c -39.7539,0 -40.156,-0.2428 -40.156,-25.4937 v -25.4936 l -18.1802,17.0791 c -45.7825,43.0103 -136.694,54.8609 -192.9813,25.155 z m 164.998,-73.3099 c 26.2401,-18.3173 35.5088,-33.9957 39.3225,-66.51487 l 2.826,-24.0937 -69.4756,-2.31 c -63.0888,-2.0975 -71.4872,-0.5797 -91.3556,16.5116 -25.481,21.91757 -28.8636,54.90967 -7.9941,77.96987 24.3775,26.9371 86.9563,26.1645 126.6774,-1.5632 z m 786.1392,79.0985 c -38.6304,-13.9797 -86.7703,-56.9265 -107.5764,-95.9716 -14.6911,-27.5696 -17.8935,-46.51557 -17.8935,-105.86067 0,-81.3153 13.1231,-115.9651 61.4232,-162.1783 127.3027,-121.8026 321.8148,-40.3689 329.8286,138.0845 l 2.1643,48.1875 h -154.6062 c -143.5168,0 -154.6058,1.0382 -154.6015,14.4536 0,7.9494 5.3535,24.7973 11.8913,37.43927 35.6366,68.9137 125.0237,84.5975 181.4955,31.845 20.7195,-19.3551 32.0982,-23.5033 64.4671,-23.5033 21.619,0 39.3071,3.0718 39.3071,6.826 0,9.1455 -41.9282,66.0101 -61.3604,83.2192 -41.0394,36.3444 -133.8034,49.4378 -194.5388,27.4588 z m 180.1435,-254.03537 c -2.5072,-8.8343 -6.5571,-23.1318 -9.0018,-31.7722 -2.4436,-8.6403 -15.3712,-24.9036 -28.7256,-36.1407 -19.1915,-16.1486 -32.9887,-20.4197 -65.8285,-20.3778 -59.6863,0.061 -99.9477,29.4437 -112.7839,82.2672 l -5.3667,22.0861 h 113.1315 c 109.2966,0 112.9773,-0.5433 108.575,-16.0626 z m 223.6951,252.13727 c -39.6097,-14.0546 -81.2953,-55.1611 -91.2943,-90.0251 l -7.3364,-25.5808 h 41.0185 c 36.1207,0 43.5217,2.999 61.9802,25.1085 17.1453,20.5371 28.2177,25.7359 60.8191,28.5564 52.9841,4.5835 94.3686,-18.9942 90.5676,-51.5987 -3.1155,-26.72547 -21.5777,-36.62367 -110.9441,-59.48047 -55.8444,-14.283 -73.7456,-22.8972 -98.383,-47.3437 -26.5989,-26.3925 -30.1136,-34.4506 -30.0869,-68.9769 0.03,-48.0172 19.3585,-82.0747 61.3847,-108.2004 44.7161,-27.7976 128.7979,-27.4015 179.2119,0.8438 37.5629,21.0459 72.5921,64.2474 72.5921,89.5283 0,12.6368 -6.5049,14.8749 -43.2352,14.8749 -36.5767,0 -43.8866,-2.4921 -47.4638,-16.1701 -2.3373,-8.9348 -17.6013,-21.7574 -34.1162,-28.6578 -39.8148,-16.6357 -83.1775,-6.8622 -99.6335,22.4564 -10.801,19.2434 -10.5812,22.7758 2.3039,37.0132 8.4224,9.3066 42.3871,22.7979 83.1019,33.0097 83.2841,20.888 106.3856,32.2117 134.9347,66.1403 18.8222,22.3687 21.3835,31.3888 18.2306,64.19997 -4.6021,47.8955 -36.2033,91.2812 -81.4556,111.8308 -39.8331,18.089 -114.9558,19.2334 -162.1959,2.4708 z M -594.3976,855.98193 c 0,-154.6016 -0.9037,-283.8042 -2.008,-287.117 -1.1042,-3.3129 18.7731,-7.1075 44.1719,-8.4322 l 46.1797,-2.4101 v 245.3541 245.35367 h 128.5 128.5 v 44.1719 44.172 h -172.6719 -172.6718 z m 819.1872,72.2813 v -208.8123 h 45.2227 45.2228 l -4.663,30.1169 -4.6627,30.1173 17.6665,-21.6727 c 47.7537,-58.582 151.9034,-60.5566 213.3746,-4.0456 42.5112,39.0812 48.8777,69.2507 49.0689,232.523 l 0.1822,150.58597 h -40.1561 -40.1563 v -133.3099 c 0,-148.16517 -7.5103,-178.95207 -48.8717,-200.34067 -39.3316,-20.3395 -76.207,-15.0427 -109.8636,15.7806 l -29.9992,27.474 -2.5133,145.1979 -2.5133,145.19807 h -43.665 -43.665 z M 497.0737,381.51163 C 406.096,368.31593 309.242,305.63243 260.139,228.16883 c -73.5856,-116.0862 -68.8148,-302.516104 10.6495,-416.1628 104.4374,-149.3621 292.3999,-193.42261 460.8962,-108.0389 61.0593,30.9411 115.4816,89.7593 150.0676,162.1889 29.2024,61.154896 29.7062,63.861296 29.5278,158.591696 -0.1518,80.667204 -3.088,103.574404 -18.0132,140.546904 -61.7334,152.9242 -223.5855,241.2526 -396.1932,216.217 z m 145.5821,-194.1312 c 118.4723,-59.8502 118.228,-266.834904 -0.3855,-327.3474 -37.3322,-19.0456 -115.7742,-21.5686 -154.7142,-4.9766 -67.8095,28.893 -105.5818,123.929096 -86.2561,217.020696 18.0557,86.973304 73.9984,133.373604 160.803,133.373604 30.4903,0 56.201,-5.7676 80.5537,-18.0703 z m 662.3369,196.7772 c -86.1468,-7.1524 -182.5473,-58.6155 -237.5332,-126.8068 -61.4697,-76.2318 -89.1522,-189.190904 -71.7085,-292.608104 41.4995,-246.036796 295.9714,-376.510296 515.7022,-264.412096 43.5527,22.2191 115.0711,90.3099 140.587,133.8499 62.284,106.279596 67.4949,246.167196 13.4272,360.4568 -57.8951,122.3801 -209.4473,202.059 -360.4747,189.5203 z m 121.0522,-195.0518 c 88.794,-42.9842 118.6869,-182.4122043 59.2146,-276.190404 -29.7976,-46.986096 -73.0219,-68.446296 -138.3608,-68.694596 -58.8346,-0.2125 -92.8017,14.007 -124.1176,51.9985 -71.5701,86.826696 -49.4548,238.9426 42.293,290.9068 42.3439,23.9829 113.7055,24.8605 160.9708,1.9791 z m -2012.4113,-297.3079 v -482.3091 l 242.9453,2.49816 c 231.6785,2.38281 245.068904,3.35446 288.736504,20.94418 66.0327,26.59829 121.9223,79.79395 143.2896,136.38232 37.307096,98.80304 4.1551,209.93694 -79.4358003,266.28974 l -41.0884997,27.7001 36.9059997,17.7871 C 89.245604,-78.300374 139.3124,6.0127257 138.6664,106.20993 138.0138,207.69753 86.936704,289.85883 -2.7800963,333.74273 -75.970996,369.54323 -116.6482,374.10633 -362.5876,374.10633 h -223.7788 z m 463.5391,284.1784 c 80.010204,-37.9672 76.046504,-164.668304 -6.036,-192.939404 -16.1784,-5.5721 -75.7491,-9.7756 -142.2765,-10.0391 l -114.4453,-0.4523 v 108.4218 108.422004 h 117.2472 c 92.886,0 123.1196,-2.7865 145.5106,-13.4121 z m -36.0509,-390.54 c 76.088204,-32.29 83.426504,-141.5605 12.0868,-179.97751 -19.8932,-10.71265 -50.8521,-14.68543 -132.3797,-16.98659 l -106.414,-3.00508 v 110.29398 110.2943 l 98.3828,-3.9573 c 63.6857,-2.5619 108.9423,-8.4382 128.3241,-16.6633 z M 1782.8522,24.747726 V -324.61177 h 96.375 96.375 v 36.9728 36.9725 l 28.3327,-24.8763 c 99.2228,-87.11908 247.2937,-87.19952 334.4695,-0.1822 l 37.5365,37.4685 26.6131,-27.4576 c 83.6068,-86.2603 250.5838,-99.37218 349.8404,-27.4713 22.7527,16.4821 41.1431,40.5992 59.7218,78.3194 l 26.8451,54.5036 2.5831,267.2347 2.5832,267.2346 h -96.9514 -96.9518 l -0.1821,-218.8514 c -0.1518,-197.613904 -1.6573,-222.112304 -15.4315,-252.451804 -18.5138,-40.777696 -49.902,-58.770196 -102.4544,-58.729196 -47.8837,0.03 -83.4298,20.525 -101.432,58.462096 -11.5219,24.2801 -13.4121,59.5027 -13.4121,249.916904 v 221.6534 h -100.3906 -100.3905 v -221.1173 c 0,-246.075604 -3.0871,-264.2502 -49.7122,-292.6768 -35.5204,-21.656 -96.2242,-21.6927 -131.196,-0.091 -51.99,32.1315 -55.7154,50.889296 -58.5963,295.0219 l -2.5832,218.8514 h -95.8004 -95.8004 z M -1252.7409,-593.39423 c -5.3783,-6.48065 -19.486,-56.17402 -31.3505,-110.42966 l -21.5718,-98.64702 -25.8505,2.03678 c -14.2178,1.12007 -59.6549,12.86689 -100.9713,26.10168 -88.7381,28.42532 -96.6552,28.97686 -117.4492,8.18293 -21.8238,-21.82386 -15.5998,-34.37902 51.8479,-104.58828 31.8258,-33.12896 65.7532,-70.77221 75.3941,-83.65171 l 17.529,-23.4173 -75.4255,-76.97329 c -79.2888,-80.9161 -92.0567,-102.0871 -77.7212,-128.8731 12.4411,-23.2466 34.6309,-20.5838 120.9669,14.5159 104.0822,42.3144 117.5865,45.1015 127.6269,26.3408 4.4752,-8.3619 17.3074,-50.8597 28.5161,-94.4396 27.0579,-105.2021 34.9761,-123.408 53.6731,-123.408 32.7521,0 50.2034,32.2274 70.6707,130.5078 10.8088,51.902 23.5925,94.3672 28.4082,94.3672 4.8157,0 51.7861,-14.4562 104.3785,-32.125 52.5925,-17.6687 102.0333,-32.125 109.8684,-32.125 7.8351,0 20.1658,9.0352 27.4014,20.0781 12.2624,18.7149 12.1822,21.5778 -1.1811,42.1641 -7.8852,12.1473 -36.3265,45.5773 -63.2029,74.2891 -26.8764,28.7117 -57.6386,62.171 -68.3604,74.35409 l -19.4944,22.15098 81.7736,83.09877 c 44.9755,45.70422 81.7736,87.47451 81.7736,92.82233 0,20.28853 -17.3083,40.79167 -34.4154,40.76799 -9.7833,-0.0137 -58.912,-12.66261 -109.175,-28.10932 -50.2629,-15.44671 -96.2029,-28.08504 -102.0889,-28.08504 -11.2613,0 -16.4165,15.67771 -43.415,132.03435 -9.163,39.48978 -20.589,76.5339 -25.3912,82.32034 -11.7402,14.14603 -50.6254,13.3638 -62.764,-1.26274 z"
     id="path1"
     clip-path="url(#clipPath6)"
     transform="matrix(0.08749462,0,0,0.08749462,288.17158,122.17578)" /></svg>
