<?xml version="1.0" encoding="UTF-8" standalone="no"?>
<!-- Created with Inkscape (http://www.inkscape.org/) -->

<svg
   width="80mm"
   height="80mm"
   viewBox="0 0 80 80"
   version="1.1"
   id="svg1"
   xml:space="preserve"
   inkscape:version="1.4 (86a8ad7, 2024-10-11)"
   sodipodi:docname="logo.svg"
   inkscape:export-filename="logo_32.png"
   inkscape:export-xdpi="10.16"
   inkscape:export-ydpi="10.16"
   xmlns:inkscape="http://www.inkscape.org/namespaces/inkscape"
   xmlns:sodipodi="http://sodipodi.sourceforge.net/DTD/sodipodi-0.dtd"
   xmlns:xlink="http://www.w3.org/1999/xlink"
   xmlns="http://www.w3.org/2000/svg"
   xmlns:svg="http://www.w3.org/2000/svg"><sodipodi:namedview
     id="namedview1"
     pagecolor="#ffffff"
     bordercolor="#000000"
     borderopacity="0.25"
     inkscape:showpageshadow="2"
     inkscape:pageopacity="0.0"
     inkscape:pagecheckerboard="0"
     inkscape:deskcolor="#d1d1d1"
     inkscape:document-units="mm"
     inkscape:zoom="1.8487073"
     inkscape:cx="111.69967"
     inkscape:cy="184.45321"
     inkscape:window-width="1728"
     inkscape:window-height="992"
     inkscape:window-x="-8"
     inkscape:window-y="-8"
     inkscape:window-maximized="1"
     inkscape:current-layer="layer1" /><defs
     id="defs1"><linearGradient
       id="linearGradient9"
       inkscape:collect="always"><stop
         style="stop-color:#fcac54;stop-opacity:1;"
         offset="0"
         id="stop9" /><stop
         style="stop-color:#dc7603;stop-opacity:1;"
         offset="1"
         id="stop10" /></linearGradient><clipPath
       clipPathUnits="userSpaceOnUse"
       id="clipPath6"><rect
         style="fill:#000000;stroke-width:0.264583"
         id="rect6"
         width="28.219061"
         height="27.979239"
         x="70.979279"
         y="156.3259" /></clipPath><clipPath
       clipPathUnits="userSpaceOnUse"
       id="clipPath7"><rect
         style="fill:#000000;stroke-width:0.264583"
         id="rect8"
         width="25.581018"
         height="23.502562"
         x="71.778687"
         y="159.12381" /></clipPath><linearGradient
       inkscape:collect="always"
       xlink:href="#linearGradient9"
       id="linearGradient10"
       x1="77.338921"
       y1="161.9478"
       x2="93.924683"
       y2="178.53355"
       gradientUnits="userSpaceOnUse" /></defs><g
     inkscape:label="Layer 1"
     inkscape:groupmode="layer"
     id="layer1"
     transform="translate(-64.628595,-109.02934)"><g
       id="g1"
       style="display:inline"
       inkscape:label="Logo"
       transform="translate(-0.38685944,1.1918091)"><path
         style="display:inline;fill:#f9f9f9;fill-opacity:1;fill-rule:nonzero;stroke-width:0.264583"
         d="m 77.938571,159.40688 c 0,0 -3.148597,12.88062 -0.429354,16.60169 2.719242,3.72107 16.744808,2.86236 19.607168,-4.0073 2.862361,-6.86967 20.036525,1.28806 22.612645,-6.15408 2.57612,-7.44213 16.74481,-31.48596 16.74481,-31.48596 l -2.71924,-14.02557 -20.609,-1.00182 -28.480482,29.62543 z"
         id="path11"
         transform="translate(-1.0833333e-6)"
         inkscape:label="KeyWhiteBg" /><path
         style="display:inline;fill:url(#linearGradient10);fill-rule:nonzero"
         d="m 81.369224,180.69437 c -9.182067,-2.9113 -10.150215,-15.88566 -1.475438,-19.77267 2.625118,-1.17627 7.187429,-1.19754 9.358994,-0.0436 0.824618,0.43818 1.499305,0.90792 1.499305,1.04387 0,0.13595 -0.886998,1.14354 -1.971108,2.23908 -1.88853,1.90844 -2.033874,1.98482 -3.469317,1.82302 -2.884685,-0.32515 -5.139003,1.78024 -5.141589,4.80191 -0.0011,1.32031 0.194678,1.7368 1.368289,2.91042 1.152752,1.15275 1.602381,1.3696 2.839741,1.3696 2.803151,0 4.955,-1.98764 4.964976,-4.58611 0.0041,-1.07841 0.31691,-1.5168 2.470627,-3.4629 l 2.465887,-2.22819 0.398307,0.99346 c 0.721475,1.79952 0.806699,6.19147 0.158038,8.1444 -1.180611,3.55449 -3.838587,5.95977 -7.731202,6.9962 -2.356144,0.62733 -3.134116,0.59634 -5.73551,-0.22846 z m 32.137026,-22.56173 c 0.35119,-0.38806 0.7179,-0.70556 0.81491,-0.70556 0.097,0 -0.11095,0.3175 -0.46213,0.70556 -0.35119,0.38806 -0.71789,0.70556 -0.81491,0.70556 -0.097,0 0.11095,-0.3175 0.46213,-0.70556 z m -2.64583,-16.00819 c 0,-0.0733 0.27781,-0.35107 0.61736,-0.61736 0.55952,-0.43881 0.572,-0.42634 0.13319,0.13319 -0.46086,0.58764 -0.75055,0.77452 -0.75055,0.48417 z"
         id="path2"
         clip-path="url(#clipPath7)"
         inkscape:label="OrangeHilt" /><path
         style="display:inline;fill:#142c3d"
         d="m 98.865974,186.47518 c -1.806354,-0.27931 -5.140402,-1.25844 -5.874426,-1.72519 -0.658348,-0.41862 -1.03298,-0.38647 -2.821421,0.24211 -6.687221,2.35037 -14.009054,0.31323 -17.907446,-4.98236 -2.514252,-3.41537 -3.170057,-5.48267 -3.191008,-10.05904 -0.01637,-3.5765 -0.0928,-4.00585 -0.975342,-5.47962 -2.04075,-3.40785 -2.346657,-5.87403 -0.802139,-6.46672 0.321774,-0.12347 2.246151,-0.2245 4.276393,-0.2245 3.44884,0 3.748237,-0.0569 4.557258,-0.86591 1.040479,-1.04047 1.097172,-1.94512 0.192001,-3.06376 -0.637787,-0.78819 -0.916683,-0.83715 -5.203472,-0.91348 -2.49126,-0.0444 -4.642442,-0.084 -4.780405,-0.0882 -0.137962,-0.004 -0.574525,-0.35498 -0.970139,-0.77962 -1.040423,-1.11677 -0.968888,-3.24374 0.146611,-4.35924 0.829935,-0.82993 1.055134,-0.86591 5.420481,-0.86591 4.073562,0 4.652738,-0.0772 5.484091,-0.73116 1.16094,-0.91319 1.18133,-1.87132 0.06361,-2.98904 -0.819926,-0.81993 -1.083429,-0.86591 -4.962081,-0.86591 -2.252894,0 -4.403235,-0.16433 -4.778535,-0.36519 -1.817431,-0.97266 0.656769,-9.96152 3.455995,-12.55575 1.521814,-1.41037 2.298309,-1.119 5.759559,2.16122 2.640379,2.50228 3.353107,2.99772 4.306007,2.99321 0.62805,-0.003 1.31658,-0.12204 1.530068,-0.26459 0.678962,-0.45335 1.204711,-1.77302 0.971478,-2.43848 -0.123933,-0.35361 -1.871678,-2.23042 -3.883879,-4.1707 -2.270457,-2.1893 -3.656305,-3.79547 -3.652639,-4.23333 0.01067,-1.27393 1.379988,-3.01771 2.906304,-3.70106 0.812541,-0.36379 1.675966,-0.55028 1.918722,-0.41442 0.242756,0.13585 1.581991,1.67303 2.976077,3.41596 2.922277,3.65352 2.960358,3.68555 4.390638,3.69273 2.590138,0.013 2.579209,-1.96888 -0.0329,-5.96547 -2.264095,-3.46412 -2.576708,-4.4007 -1.881999,-5.63841 1.034444,-1.84299 4.621789,-3.41988 5.923594,-2.60384 0.307876,0.19299 0.846635,1.44583 1.197244,2.78409 1.549,5.91246 1.596505,6.02729 2.67897,6.47567 0.76291,0.316 1.218046,0.3253 1.758746,0.0359 1.329217,-0.71138 1.413032,-1.39899 0.6888,-5.65088 -0.378657,-2.22306 -0.597847,-4.40298 -0.487088,-4.84428 0.465006,-1.85273 4.703638,-2.65271 6.188388,-1.16796 0.63287,0.63287 0.70555,1.17592 0.70555,5.27166 0,4.31857 0.0425,4.59588 0.78405,5.11528 1.10493,0.77392 1.93504,0.68437 2.93615,-0.31674 0.82716,-0.82716 0.86591,-1.06359 0.86591,-5.28354 0,-4.33146 0.0173,-4.42898 0.88845,-4.99975 1.91703,-1.25609 7.90627,0.2867 14.61384,3.76443 l 4.03701,2.0931 h 4.51785 4.51785 v 4.24285 4.24286 l 1.91456,3.17582 c 1.78644,2.96332 4.03606,8.81998 4.57679,11.91527 0.20253,1.15929 -0.23048,2.45858 -0.98791,2.96433 -0.21349,0.14254 -2.22354,0.26161 -4.46678,0.26458 -3.6126,0.005 -4.16683,0.0876 -4.85069,0.7247 -0.88699,0.82635 -0.99468,2.01598 -0.27209,3.00564 0.44288,0.60656 1.01713,0.69577 5.02709,0.78096 5.61645,0.11931 5.97565,0.19935 6.63734,1.47891 0.75713,1.46414 0.66582,2.64388 -0.29071,3.75591 -0.81118,0.94306 -0.91595,0.9635 -5.73264,1.11854 -5.38588,0.17336 -6.14107,0.44668 -6.14107,2.22259 0,0.63642 0.32468,1.23344 0.92952,1.70921 0.80851,0.63598 1.41974,0.73116 4.69507,0.73116 4.61998,0 5.1572,0.27138 4.86403,2.45712 -0.306,2.28134 -4.52802,10.59776 -6.06555,11.94773 -2.19325,1.9257 -3.05217,1.6595 -6.6391,-2.05763 -3.36109,-3.48308 -4.21271,-3.83389 -5.69901,-2.34758 -1.24605,1.24605 -0.82905,2.28388 2.2894,5.69782 1.52034,1.66441 2.86391,3.34015 2.9857,3.72388 0.74169,2.33686 -5.42052,6.43768 -6.97094,4.63902 -0.28476,-0.33035 -1.12276,-2.07837 -1.86223,-3.88448 -1.7925,-4.37806 -3.41967,-5.63588 -5.10745,-3.9481 -0.98156,0.98156 -0.89205,1.86982 0.54836,5.44197 0.74325,1.84323 1.21017,3.55228 1.14652,4.19654 -0.1543,1.56189 -1.80567,2.42373 -5.04212,2.63143 -2.26753,0.14552 -2.6491,0.0782 -3.31194,-0.58468 -0.67227,-0.67227 -0.74915,-1.14474 -0.74915,-4.6041 0,-3.74438 -0.0267,-3.87592 -0.92952,-4.58611 -0.51123,-0.40214 -1.12482,-0.73116 -1.36353,-0.73116 -0.23871,0 -0.8523,0.32902 -1.36354,0.73116 -0.91115,0.71671 -0.92952,0.81412 -0.92952,4.92983 v 4.19867 l -1.04081,0.53822 c -0.99053,0.51223 -2.30446,0.60674 -4.25086,0.30577 z m -11.76124,-5.55235 c 3.802503,-1.01244 6.268576,-3.16271 7.577288,-6.60696 0.79735,-2.09845 0.855711,-5.5306 0.13476,-7.92508 l -0.521415,-1.73176 2.894876,-2.91042 c 1.592182,-1.60073 3.082497,-2.91041 3.311817,-2.91041 0.22932,0 1.69573,1.3668 3.2587,3.03733 l 2.84176,3.03734 4.39324,-4.17261 c 3.51023,-3.33395 4.33008,-4.29062 4.07902,-4.75973 -0.17281,-0.32291 -1.11237,-1.30472 -2.0879,-2.18181 -0.97552,-0.87708 -1.77368,-1.72318 -1.77368,-1.88023 0,-0.15704 0.66936,-0.96756 1.48746,-1.80115 l 1.48747,-1.51562 2.362,2.3439 2.362,2.3439 1.74213,-1.74212 1.74212,-1.74212 -2.09524,-2.22914 -2.09524,-2.22914 1.51858,-1.54732 1.51857,-1.54732 2.24192,2.2075 2.24191,2.2075 1.73899,-1.87669 c 0.95645,-1.03218 1.73899,-2.02352 1.73899,-2.20298 0,-0.17946 -0.96747,-1.23994 -2.14995,-2.35664 -3.07148,-2.90062 -3.12511,-3.06745 -1.51598,-4.71534 0.73682,-0.75458 1.49155,-1.37196 1.67716,-1.37196 0.18561,0 1.27514,0.89438 2.42117,1.98751 1.14604,1.09313 2.19226,1.84719 2.32496,1.67569 0.13269,-0.17149 0.19566,-3.844 0.13994,-8.16111 l -0.10131,-7.84931 -7.48341,0.0102 -7.48341,0.0102 -13.35011,13.27091 -13.350114,13.2709 2.146977,2.14698 2.146977,2.14698 9.80655,-9.78362 c 5.3936,-5.38098 10.06371,-9.78361 10.37802,-9.78361 0.66837,0 2.48031,2.02841 2.3267,2.60468 -0.0577,0.21666 -5.97875,6.20011 -13.15778,13.29655 l -13.052776,12.90262 -1.5875,-0.90817 c -2.219703,-1.26985 -6.683149,-1.29792 -9.447188,-0.0594 -8.674777,3.88701 -7.706629,16.86137 1.475438,19.77267 2.601394,0.8248 3.379366,0.85579 5.73551,0.22846 z"
         id="path1"
         inkscape:label="KeyGear" /></g></g></svg>
