<?xml version="1.0" encoding="UTF-8" standalone="no"?>
<!-- Created with Inkscape (http://www.inkscape.org/) -->

<svg
   width="203.14288mm"
   height="94.413239mm"
   viewBox="0 0 203.14288 94.413239"
   version="1.1"
   id="svg1"
   xml:space="preserve"
   inkscape:version="1.4 (86a8ad7, 2024-10-11)"
   sodipodi:docname="BoomLogo2025.svg"
   xmlns:inkscape="http://www.inkscape.org/namespaces/inkscape"
   xmlns:sodipodi="http://sodipodi.sourceforge.net/DTD/sodipodi-0.dtd"
   xmlns="http://www.w3.org/2000/svg"
   xmlns:svg="http://www.w3.org/2000/svg"><sodipodi:namedview
     id="namedview1"
     pagecolor="#ffffff"
     bordercolor="#000000"
     borderopacity="0.25"
     inkscape:showpageshadow="2"
     inkscape:pageopacity="0.0"
     inkscape:pagecheckerboard="0"
     inkscape:deskcolor="#d1d1d1"
     inkscape:document-units="mm"
     inkscape:zoom="0.94237256"
     inkscape:cx="412.25734"
     inkscape:cy="249.37059"
     inkscape:window-width="1728"
     inkscape:window-height="992"
     inkscape:window-x="-8"
     inkscape:window-y="-8"
     inkscape:window-maximized="1"
     inkscape:current-layer="svg1" /><defs
     id="defs1" /><g
     inkscape:label="Layer 1"
     inkscape:groupmode="layer"
     id="layer1"
     transform="translate(-4.4744354,-84.332566)"><path
       style="display:inline;fill:currentColor"
       d="M 28.520755,178.285 C 22.10786,176.8688 16.995511,173.97587 12.583864,169.26681 8.9954994,165.43653 6.5864401,161.05876 5.2067469,155.86104 4.4342724,152.95089 4.2304457,146.7332 4.8003134,143.46287 6.4858578,133.78993 12.595404,125.5554 21.287491,121.24122 l 2.470764,-1.22632 v -2.24387 c 0,-3.86671 0.838264,-4.59884 5.265507,-4.59884 h 2.671993 v -2.06108 c 0,-6.29624 3.634395,-11.637101 9.392708,-13.802884 2.713247,-1.020491 9.070459,-1.089238 10.051005,-0.108693 0.539946,0.539947 0.505933,1.772774 -0.06298,2.282881 -0.859931,0.771036 -3.651508,1.518806 -5.680195,1.521526 -1.495485,0.002 -2.24424,0.15046 -3.346245,0.66347 -3.855313,1.79471 -5.753131,4.84921 -5.915217,9.5204 l -0.07345,2.11667 3.368047,0.13229 c 3.24691,0.12753 3.394412,0.15866 4.101042,0.86538 0.686427,0.68652 0.738746,0.90004 0.823543,3.36097 l 0.09055,2.62789 0.967784,0.31374 c 1.744327,0.56549 5.166816,2.39322 6.965877,3.72003 2.428045,1.79069 5.992074,5.60352 7.501273,8.02493 1.585484,2.54381 3.064951,5.97165 3.827589,8.86831 0.74455,2.82796 1.016709,8.96791 0.541553,12.21752 -0.907735,6.20804 -3.950409,12.05606 -8.674072,16.67157 -3.938946,3.84876 -8.443322,6.40204 -13.779788,7.811 -3.531073,0.93229 -9.914793,1.10874 -13.274024,0.36689 z m 13.874984,-18.02537 c 2.626876,-0.99702 4.958866,-3.77283 4.195102,-4.9935 -0.525603,-0.84004 -1.49897,-0.6519 -2.39483,0.46288 -2.760055,3.43451 -9.738419,3.37983 -12.390402,-0.0971 -1.021326,-1.33903 -2.491104,-1.16035 -2.491104,0.30283 0,0.84749 1.544483,2.74785 2.919553,3.59228 2.671236,1.64041 6.956002,1.94932 10.161681,0.73261 z M 29.170071,149.80501 c 1.353457,-0.64226 1.599642,-1.39193 1.599642,-4.87117 0,-2.53615 -0.08517,-3.20823 -0.4836,-3.81604 -0.550416,-0.83966 -2.031648,-1.55705 -2.742756,-1.32837 -2.067567,0.66489 -2.462185,1.50664 -2.462185,5.25203 0,3.13308 0.309463,4.09885 1.52468,4.75822 0.934954,0.5073 1.503901,0.50848 2.564219,0.005 z m 19.996844,0.007 c 1.283678,-0.66382 1.57896,-1.58892 1.57785,-4.94332 -8.21e-4,-2.48074 -0.08742,-3.13145 -0.50869,-3.82232 -0.698508,-1.14554 -2.036979,-1.57543 -3.28351,-1.0546 -1.605406,0.67079 -1.895353,1.43032 -1.895353,4.96503 0,2.73468 0.06554,3.18935 0.554673,3.8481 1.015031,1.36699 2.206417,1.7045 3.55503,1.00711 z m 78.704875,22.659 c -1.94443,-0.51126 -3.50434,-1.81834 -4.22285,-3.53838 l -0.41446,-0.99219 h 1.56062 c 1.36921,0 1.61334,0.0805 1.99042,0.65596 0.67591,1.03156 1.90567,1.53828 3.38768,1.39588 1.45376,-0.13969 2.44024,-0.8709 3.02436,-2.24177 0.33547,-0.78731 0.5152,-2.98507 0.24411,-2.98507 -0.0653,0 -0.43997,0.29779 -0.83269,0.66175 -1.06357,0.98568 -2.56506,1.31174 -4.44661,0.96561 -2.03867,-0.37504 -3.40602,-1.31018 -4.36123,-2.98269 -2.58701,-4.52969 -0.0416,-10.23299 4.78951,-10.73161 1.73455,-0.17902 3.22421,0.23821 4.24208,1.18815 l 0.7276,0.67905 v -0.84325 c 0,-0.83675 0.0103,-0.84325 1.33762,-0.84325 h 1.33761 l -0.0808,7.73906 c -0.0766,7.33493 -0.11059,7.79433 -0.65041,8.79739 -0.71645,1.33127 -1.54514,2.10932 -2.8091,2.63743 -1.18889,0.49675 -3.72426,0.72694 -4.82342,0.43793 z m 3.56288,-8.96275 c 1.32962,-0.67074 1.9603,-1.92549 1.9603,-3.90008 0,-1.95712 -0.70052,-3.29681 -2.06161,-3.94269 -2.05544,-0.97537 -4.29273,-0.21542 -5.19093,1.76323 -1.78773,3.93819 1.66789,7.90788 5.29224,6.07954 z m 39.46619,8.68675 c -1.61679,-0.55829 -2.99752,-1.80982 -3.59917,-3.26238 l -0.41096,-0.99219 h 1.58174 c 1.32469,0 1.629,0.0883 1.87252,0.54333 0.44301,0.82777 1.85925,1.57125 2.99515,1.57235 2.3967,0.002 3.8586,-1.64077 3.87063,-4.35039 l 0.006,-1.30867 -0.89411,0.8666 c -1.60063,1.5514 -4.1088,1.68679 -6.58493,0.35547 -3.26906,-1.75764 -4.27359,-6.58923 -2.10138,-10.10711 1.84648,-2.99036 6.23908,-3.82984 8.79339,-1.68053 l 0.78703,0.66224 v -0.81726 c 0,-0.80434 0.0209,-0.81727 1.32292,-0.81727 h 1.32291 v 7.31149 c 0,8.27559 -0.10186,8.90476 -1.71255,10.57763 -1.77381,1.84228 -4.51761,2.38986 -7.249,1.44669 z m 4.17662,-8.68675 c 1.23529,-0.63242 1.87452,-1.94361 1.87452,-3.84506 0,-2.65691 -1.22791,-4.18121 -3.5037,-4.3494 -1.77356,-0.13108 -2.93579,0.54242 -3.64962,2.11492 -1.78451,3.93108 1.68052,7.92172 5.2788,6.07954 z m -78.029645,3.07733 c -1.828454,-0.72697 -2.899332,-2.80995 -2.398008,-4.66442 0.674323,-2.4944 2.047316,-3.24114 5.959343,-3.24114 h 2.78866 v -0.80689 c 0,-1.34403 -0.67299,-2.3152 -1.81802,-2.62352 -1.673587,-0.45065 -3.045893,0.0115 -3.704317,1.2476 -0.264986,0.49746 -0.537743,0.59531 -1.6594,0.59531 -1.331952,0 -1.340892,-0.006 -1.160692,-0.72761 0.728245,-2.91782 4.187788,-4.48141 7.632139,-3.44946 1.42564,0.42713 2.95953,1.92673 3.32538,3.25103 0.1624,0.58785 0.29304,3.14608 0.29386,5.75468 l 10e-4,4.69636 h -1.45521 -1.45521 v -0.83987 -0.83987 l -0.59531,0.54434 c -1.43344,1.31069 -3.997041,1.80226 -5.754685,1.10346 z m 3.729695,-2.08473 c 0.8618,0 2.35492,-1.59938 2.5318,-2.71198 l 0.15774,-0.99218 h -2.13406 c -2.514597,0 -3.386477,0.27393 -3.806587,1.19597 -0.468942,1.02921 -0.0032,2.04349 1.114589,2.42747 0.5062,0.17388 1.07893,0.26318 1.272733,0.19844 0.193805,-0.0648 0.582505,-0.11772 0.863785,-0.11772 z m 41.24947,2.09943 c -1.1829,-0.49442 -2.37903,-1.89639 -2.78538,-3.26471 -0.2776,-0.93481 -0.38962,-2.62939 -0.38962,-5.8942 v -4.58218 h 1.45521 1.45521 v 4.64334 c 0,5.26814 0.15274,5.8401 1.76377,6.60459 0.88879,0.42175 1.10493,0.43247 2.05355,0.10182 0.6623,-0.23085 1.28689,-0.70697 1.66415,-1.26857 0.57112,-0.85017 0.60394,-1.14852 0.60394,-5.4901 v -4.59108 h 1.38906 1.38907 v 6.87916 6.87917 h -1.38907 c -1.38595,0 -1.38906,-0.002 -1.38906,-0.84565 v -0.84566 l -0.92792,0.89938 c -0.82607,0.80066 -1.10924,0.90771 -2.57969,0.97527 -0.90847,0.0417 -1.94942,-0.0485 -2.31322,-0.20058 z m 12.8872,-0.27113 c -2.69321,-1.42134 -2.746,-5.00214 -0.10265,-6.96335 0.63348,-0.47 1.20218,-0.5669 3.77031,-0.6424 l 3.0243,-0.0889 v -0.97669 c 0,-1.29003 -0.59104,-2.07779 -1.80396,-2.4044 -1.41192,-0.38019 -2.88183,0.0732 -3.44466,1.06252 -0.39155,0.68824 -0.58174,0.77345 -1.72976,0.77494 l -1.28984,0.002 0.16921,-0.84607 c 0.39584,-1.97918 2.168,-3.35548 4.60518,-3.57647 2.76673,-0.25088 5.33143,1.08226 6.12344,3.18299 0.16191,0.42947 0.28081,2.86602 0.28081,5.75469 v 5.00986 h -1.32292 c -1.30966,0 -1.32291,-0.008 -1.32291,-0.83987 v -0.83987 l -0.59893,0.56266 c -1.50827,1.41694 -4.50328,1.80735 -6.35762,0.82871 z m 5.43573,-2.41514 c 0.86446,-0.60345 1.16981,-1.11996 1.29545,-2.19128 l 0.0931,-0.79375 -2.28882,-0.0761 c -2.07841,-0.0691 -2.35509,-0.0191 -3.00964,0.54396 -0.83945,0.72206 -0.95089,1.80896 -0.26336,2.56866 0.8031,0.88742 2.86471,0.86197 4.17329,-0.0515 z m 25.89875,2.60584 c -1.27265,-0.46055 -2.85858,-1.8754 -3.54402,-3.16171 -0.48399,-0.90826 -0.58949,-1.53242 -0.58949,-3.4875 0,-2.67887 0.43233,-3.82038 2.02354,-5.34284 4.19389,-4.01269 10.60194,-1.32992 10.86595,4.54909 l 0.0713,1.5875 h -5.09338 c -4.72805,0 -5.09337,0.0342 -5.09323,0.47616 9e-5,0.26189 0.17637,0.81693 0.39175,1.23341 1.17402,2.27031 4.11881,2.787 5.97923,1.04911 0.68259,-0.63764 1.05745,-0.7743 2.12382,-0.7743 0.71222,0 1.29494,0.1012 1.29494,0.22488 0,0.30129 -1.38129,2.17465 -2.02147,2.74159 -1.35201,1.19734 -4.40805,1.62869 -6.40893,0.90461 z m 5.93469,-8.369 c -0.0826,-0.29104 -0.21602,-0.76206 -0.29656,-1.04671 -0.0805,-0.28465 -0.50639,-0.82043 -0.94634,-1.19063 -0.63225,-0.532 -1.08679,-0.67271 -2.16867,-0.67133 -1.96632,0.002 -3.2927,0.97 -3.71558,2.71023 l -0.1768,0.72761 h 3.72703 c 3.60069,0 3.72195,-0.0179 3.57692,-0.52917 z m 7.36946,8.30647 c -1.30491,-0.46302 -2.67821,-1.81724 -3.00762,-2.96581 l -0.24169,-0.84274 h 1.35132 c 1.18997,0 1.43379,0.0988 2.04189,0.82718 0.56484,0.67658 0.92961,0.84785 2.00364,0.94077 1.74552,0.151 3.1089,-0.62575 2.98368,-1.69988 -0.10264,-0.88045 -0.71086,-1.20654 -3.65497,-1.95954 -1.83975,-0.47054 -2.42949,-0.75433 -3.24115,-1.5597 -0.87628,-0.86948 -0.99207,-1.13495 -0.99119,-2.27239 0.001,-1.58189 0.63775,-2.70389 2.02227,-3.56458 1.47314,-0.91577 4.24315,-0.90272 5.904,0.0278 1.23748,0.69334 2.39149,2.11658 2.39149,2.94944 0,0.41631 -0.2143,0.49004 -1.42435,0.49004 -1.20499,0 -1.44581,-0.0821 -1.56366,-0.53271 -0.077,-0.29435 -0.57986,-0.71678 -1.12393,-0.94411 -1.31167,-0.54805 -2.74022,-0.22607 -3.28235,0.73981 -0.35583,0.63396 -0.34859,0.75033 0.0759,1.21937 0.27747,0.3066 1.39641,0.75106 2.73773,1.08748 2.74373,0.68814 3.50479,1.06119 4.44532,2.17894 0.62008,0.73692 0.70446,1.03408 0.60059,2.11502 -0.15161,1.57788 -1.19269,3.00719 -2.68349,3.68418 -1.31227,0.59593 -3.78713,0.63363 -5.34342,0.0814 z M 81.966586,157.3576 c 0,-5.09323 -0.02977,-9.34971 -0.06615,-9.45885 -0.03638,-0.10914 0.618463,-0.23415 1.455208,-0.27779 l 1.521354,-0.0794 v 8.083 8.08299 h 4.233333 4.233333 v 1.45521 1.45521 h -5.688541 -5.688541 z m 26.987494,2.38125 v -6.87916 h 1.48983 1.48983 l -0.15362,0.99218 -0.15361,0.99219 0.58201,-0.71399 c 1.57321,-1.92994 5.00434,-1.99499 7.02946,-0.13328 1.4005,1.2875 1.61024,2.28141 1.61654,7.66029 l 0.006,4.96094 h -1.32291 -1.32292 v -4.39179 c 0,-4.88119 -0.24742,-5.89544 -1.61004,-6.60007 -1.29575,-0.67007 -2.51058,-0.49557 -3.61937,0.51988 l -0.9883,0.90511 -0.0828,4.78343 -0.0828,4.78344 h -1.43851 -1.43851 z m 8.97019,-18.01231 c -2.99719,-0.43472 -6.18797,-2.49978 -7.80563,-5.05176 -2.42422,-3.82437 -2.26705,-9.96616 0.35084,-13.71016 3.44061,-4.92062 9.63289,-6.37216 15.18387,-3.55926 2.01155,1.01933 3.80445,2.95705 4.94386,5.34319 0.96205,2.0147 0.97865,2.10386 0.97277,5.22468 -0.005,2.65752 -0.10173,3.41218 -0.59343,4.63021 -2.03376,5.03797 -7.36585,7.94788 -13.05228,7.1231 z m 4.79609,-6.3955 c 3.90298,-1.97172 3.89493,-8.79067 -0.0127,-10.78421 -1.22988,-0.62744 -3.81409,-0.71056 -5.09694,-0.16395 -2.23393,0.95186 -3.47831,4.08275 -2.84164,7.14958 0.59483,2.86527 2.43782,4.39389 5.29753,4.39389 1.00448,0 1.8515,-0.19001 2.65378,-0.59531 z m 21.82018,6.48267 c -2.83804,-0.23563 -6.01388,-1.93104 -7.82535,-4.17755 -2.02507,-2.5114 -2.93705,-6.23275 -2.36238,-9.63975 1.36717,-8.10549 9.75055,-12.40384 16.98941,-8.71085 1.43481,0.73199 3.79093,2.97519 4.63153,4.40958 2.0519,3.5013 2.22357,8.10979 0.44235,11.87497 -1.90731,4.03172 -6.90008,6.65668 -11.87556,6.2436 z m 3.98797,-6.42583 c 2.92525,-1.41608 3.91005,-6.00943 1.95078,-9.09888 -0.98166,-1.54792 -2.40565,-2.25491 -4.55819,-2.26309 -1.93826,-0.007 -3.05728,0.46145 -4.08896,1.71305 -2.35782,2.86044 -1.62925,7.87178 1.39331,9.5837 1.39499,0.7901 3.74594,0.81901 5.30306,0.0652 z M 82.231169,125.5933 V 109.704 l 8.003645,0.0823 c 7.63247,0.0785 8.073606,0.11051 9.512202,0.68999 2.175394,0.87626 4.016634,2.62875 4.720564,4.49301 1.22906,3.25499 0.13689,6.91621 -2.61695,8.77271 l -1.35363,0.91256 1.21584,0.58598 c 2.77585,1.33784 4.42526,4.11547 4.40398,7.41639 -0.0215,3.34343 -1.7042,6.05017 -4.65985,7.49589 -2.411218,1.17942 -3.751299,1.32975 -11.853581,1.32975 h -7.37222 z m 15.270937,9.36204 c 2.635874,-1.2508 2.505294,-5.42487 -0.19885,-6.35624 -0.532985,-0.18357 -2.495496,-0.32205 -4.687192,-0.33073 l -3.770312,-0.0149 v 3.57187 3.57188 h 3.862618 c 3.06006,0 4.056081,-0.0918 4.793736,-0.44185 z M 96.314437,122.0893 c 2.506668,-1.06377 2.748423,-4.6636 0.39819,-5.92922 -0.655365,-0.35292 -1.675284,-0.4838 -4.361146,-0.55961 l -3.505729,-0.099 v 3.63355 3.63356 l 3.241146,-0.13037 c 2.098077,-0.0844 3.589021,-0.27799 4.227539,-0.54896 z m 63.968813,7.88393 v -11.50938 h 3.175 3.175 v 1.21804 1.21803 l 0.9334,-0.81953 c 3.26882,-2.87007 8.1469,-2.87272 11.01884,-0.006 l 1.23661,1.23437 0.87675,-0.90457 c 2.75436,-2.84178 8.25529,-3.27374 11.52522,-0.90502 0.74957,0.54299 1.35543,1.33751 1.96749,2.58017 l 0.88439,1.79558 0.0851,8.80384 0.0851,8.80384 h -3.19399 -3.194 l -0.006,-7.20989 c -0.005,-6.51024 -0.0546,-7.31732 -0.50838,-8.31683 -0.60992,-1.34339 -1.64398,-1.93614 -3.37528,-1.93479 -1.57749,0.001 -2.74853,0.67618 -3.3416,1.92599 -0.37958,0.79989 -0.44185,1.96027 -0.44185,8.23332 v 7.3022 h -3.30729 -3.30729 v -7.28454 c 0,-8.10677 -0.1017,-8.70552 -1.63773,-9.64201 -1.17019,-0.71344 -3.17003,-0.71465 -4.32215,-0.003 -1.71277,1.05855 -1.8355,1.67651 -1.93041,9.71927 l -0.0851,7.20989 h -3.15607 -3.15607 z M 60.277976,109.60902 c -0.177184,-0.2135 -0.641954,-1.85061 -1.03282,-3.63802 l -0.710667,-3.24985 -0.851624,0.0671 c -0.468394,0.0369 -1.965283,0.42389 -3.326421,0.8599 -2.923407,0.93645 -3.184231,0.95462 -3.869272,0.26958 -0.718971,-0.71897 -0.513924,-1.13259 1.708087,-3.44558 1.048478,-1.091408 2.166188,-2.331536 2.483801,-2.755841 l 0.577478,-0.771465 -2.484832,-2.535827 c -2.61211,-2.665718 -3.032738,-3.363179 -2.560467,-4.245624 0.409864,-0.765839 1.140889,-0.678116 3.985161,0.478216 3.428908,1.394014 3.873797,1.485834 4.204572,0.867776 0.14743,-0.275475 0.570178,-1.675533 0.93944,-3.111238 0.8914,-3.465802 1.152259,-4.065581 1.768217,-4.065581 1.078993,0 1.653912,1.061705 2.328192,4.299479 0.356088,1.709869 0.777237,3.108854 0.935887,3.108854 0.158651,0 1.706052,-0.47625 3.43867,-1.058334 1.732618,-0.582083 3.361406,-1.058333 3.619529,-1.058333 0.258122,0 0.664345,0.297656 0.902718,0.661458 0.403976,0.616547 0.401334,0.710862 -0.03891,1.389063 -0.259773,0.400182 -1.19675,1.50151 -2.082171,2.447396 -0.885421,0.945885 -1.898858,2.048178 -2.252082,2.449539 l -0.642227,0.729747 2.693968,2.737625 c 1.481682,1.50569 2.693967,2.88178 2.693967,3.05796 0,0.66839 -0.570208,1.34385 -1.133788,1.34307 -0.322302,-4.5e-4 -1.94081,-0.41716 -3.596685,-0.92604 -1.655874,-0.50888 -3.169332,-0.92524 -3.363239,-0.92524 -0.370998,0 -0.540829,0.51649 -1.430276,4.34977 -0.301867,1.30096 -0.678289,2.52135 -0.836494,2.71198 -0.386769,0.46603 -1.667812,0.44026 -2.067711,-0.0416 z"
       id="path1" /></g></svg>
